<svg aria-hidden="true" focusable="false" role="presentation" xmlns="http://www.w3.org/2000/svg" width="28" height="28" viewBox="0 0 28 28">      <path fill="currentColor" fill-rule="evenodd" d="M13.99734212 5.50536055c-2.30775185 0-2.59712311.0097771-3.5034532.05111062-.9044412.0412661-1.52214209.18482087-2.06266832.39479248-.55877426.21705158-1.03264964.5074651-1.50504089.97963151-.47239125.47216641-.76294307.94581624-.980098 1.50432454-.2100716.54023525-.35369473 1.15764213-.39498048 2.06165285C5.50974803 11.40277126 5.5 11.69200479 5.5 13.99865823c0 2.30661977.00974802 2.59585327.05110123 3.50175197.04128575.9040107.18490888 1.5214176.39498048 2.0616529.21715493.5585083.50770675 1.0321581.980098 1.5043582.47239125.4721664.94626663.7625799 1.50504089.9796315.54052623.2099379 1.15822712.3535264 2.06266832.3947588.90633009.0413335 1.19570135.0511106 3.5034532.0511106 2.30771808 0 2.59708938-.0097771 3.50341948-.0511106.9044412-.0412324 1.5221421-.1848209 2.0626346-.3947588.5587742-.2170516 1.0326496-.5074651 1.5050746-.9796315.4723912-.4722001.7629431-.9458499.980098-1.5043582.2100379-.5402353.3536947-1.1576422.3949467-2.0616529.0413532-.9058987.051135-1.1951322.051135-3.50175197 0-2.30665344-.0097818-2.59588697-.051135-3.50178568-.041252-.90401072-.1849088-1.5214176-.3949467-2.06165285-.2171549-.5585083-.5077068-1.03215813-.980098-1.50432454-.472425-.4721664-.9463004-.76257993-1.5050746-.97963151-.5404925-.20997161-1.1581934-.35352638-2.0626346-.39479248-.9063301-.04133353-1.1957014-.05111062-3.50341948-.05111062zm0 1.53035185c2.26886098 0 2.53762308.00863082 3.43363168.04949234.8284809.03779354 1.2784078.17615634 1.5778307.29243638.3966332.15407358.6796969.33815274.9770285.6353428.2973653.29719007.4814984.58015278.6356454.97656353.1163691.29928035.2547978.74899315.2925756 1.57707964.040881.89558219.0495496 1.16421638.0495496 3.43203114 0 2.26778107-.0086686 2.53641527-.0495496 3.43199747-.0377778.8280865-.1762065 1.2777993-.2925756 1.5770796-.154147.3964445-.3382801.6793735-.6356454.9765635-.2973316.2972238-.5803953.4812693-.9770285.6353428-.2994229.1163138-.7493498.2546766-1.5778307.2924364-.8958737.0408615-1.1646021.0495261-3.43363168.0495261-2.26906333 0-2.53775799-.0086646-3.43366545-.0495261-.82848082-.0377598-1.27840777-.1761226-1.57783063-.2924364-.39663325-.1540735-.67969697-.338119-.97706229-.6353428-.29733158-.29719-.4814984-.580119-.63561162-.9765635-.11636914-.2992803-.25479782-.7489931-.29260936-1.5770796-.04088098-.8955822-.04951591-1.1642164-.04951591-3.43199747 0-2.26781476.00863493-2.53644895.04951591-3.43203114.03781154-.82808649.17624022-1.27779929.29260936-1.57707964.15411322-.39641075.33828004-.67937346.63561162-.97656353.29736532-.29719006.58042904-.48126922.97706229-.6353428.29942286-.11628004.74934981-.25464284 1.57783063-.29243638.89600865-.04086152 1.16477077-.04949234 3.43366545-.04949234z"></path>      <path fill="currentColor" fill-rule="evenodd" d="M13.99734212 16.829735c-1.56433856 0-2.83245862-1.2675165-2.83245862-2.83107677 0-1.56359398 1.26812006-2.83111046 2.83245862-2.83111046 1.56430478 0 2.83242488 1.26751648 2.83242488 2.83111046 0 1.56356027-1.2681201 2.83107677-2.83242488 2.83107677zm0-7.19250537c-2.40992058 0-4.36350548 1.95265506-4.36350548 4.3614286 0 2.40873987 1.9535849 4.36139487 4.36350548 4.36139487 2.40988688 0 4.36347178-1.952655 4.36347178-4.36139487 0-2.40877354-1.9535849-4.3614286-4.36347178-4.3614286z"></path>      <path fill="currentColor" fill-rule="evenodd" d="M19.5529061 9.46491671c0 .56289113-.4565381 1.01917819-1.0196973 1.01917819-.5631254 0-1.0196635-.45628706-1.0196635-1.01917819 0-.56289114.4565381-1.0191782 1.0196635-1.0191782.5631592 0 1.0196973.45628706 1.0196973 1.0191782z"></path>    </svg>