<svg aria-hidden="true" focusable="false" role="presentation" xmlns="http://www.w3.org/2000/svg" width="28" height="28" viewBox="0 0 28 28">      <path fill="currentColor" fill-rule="evenodd" d="M11.958 16.23v-4.22l4.058 2.117-4.058 2.102zm8.91-4.951s-.147-1.035-.597-1.491c-.571-.598-1.211-.601-1.505-.636C16.664 9 13.512 9 13.512 9h-.006s-3.153 0-5.254.152c-.294.035-.934.038-1.505.636-.45.456-.597 1.49-.597 1.49S6 12.495 6 13.71v1.14c0 1.215.15 2.43.15 2.43s.147 1.035.597 1.49c.571.599 1.322.58 1.656.643 1.201.115 5.106.15 5.106.15s3.155-.004 5.257-.156c.294-.035.934-.038 1.505-.636.45-.456.597-1.49.597-1.49s.15-1.216.15-2.431v-1.14c0-1.215-.15-2.43-.15-2.43z"></path>    </svg>