<svg class="icon-store " aria-hidden="true" focusable="false" role="presentation" xmlns="http://www.w3.org/2000/svg" width="46" height="44" viewBox="0 0 46 44" fill="none">          <title>Store icon</title>        <path fill-rule="evenodd" clip-rule="evenodd" d="M6.2864 2.9101C5.4577 2.91048 4.71527 3.40015 4.42025 4.1409L1.26139 12.0685C0.922764 12.9195 0.912845 13.8582 1.23342 14.7155C2.13633 17.1196 4.71514 18.5551 7.34639 18.1181C9.97765 17.6812 11.8998 15.4984 11.9028 12.9438C11.9028 15.8465 14.3628 18.1996 17.3974 18.1996C20.4319 18.1996 22.8919 15.8465 22.8919 12.9438C22.8919 15.8465 25.3519 18.1996 28.3864 18.1996C31.421 18.1996 33.881 15.8465 33.881 12.9438C33.884 15.4984 35.8061 17.6812 38.4374 18.1181C41.0686 18.5551 43.6475 17.1196 44.5504 14.7155C44.8714 13.8581 44.8607 12.9191 44.5204 12.0685L41.3635 4.1409C41.0685 3.40015 40.3261 2.91048 39.4974 2.9101L6.2864 2.9101Z" stroke="currentColor" stroke-width="1.75" stroke-linecap="round" stroke-linejoin="round"></path>      <path d="M9.19455 23.9332V23.0582H8.31955V23.9332H9.19455ZM22.806 23.9332H23.681V23.0582H22.806V23.9332ZM22.806 35.4003V36.2753H23.681V35.4003H22.806ZM9.19455 35.4003H8.31955V36.2753H9.19455V35.4003ZM9.19455 24.8082H22.806V23.0582H9.19455V24.8082ZM21.931 23.9332V35.4003H23.681V23.9332H21.931ZM22.806 34.5253H9.19455V36.2753H22.806V34.5253ZM10.0695 35.4003V23.9332H8.31955V35.4003H10.0695Z" fill="currentColor"></path>      <path d="M40.7887 18.2903L40.7881 40.7928C40.7881 40.8756 40.721 40.9428 40.6381 40.9428H5.05979C4.97695 40.9428 4.90979 40.8756 4.90979 40.7928L4.90983 18.291" stroke="currentColor" stroke-width="1.75" stroke-linecap="round" stroke-linejoin="round"></path>      <path d="M36.6237 41.0899V23.9151L26.9121 23.9151V41.0899" stroke="currentColor" stroke-width="1.75"></path>    </svg>