<svg class="icon-cell-phone " aria-hidden="true" focusable="false" role="presentation" xmlns="http://www.w3.org/2000/svg" width="26" height="46" viewBox="0 0 26 46" fill="none">          <title>Cellphone icon</title>        <path d="M13 40.9583V40.9583C13.2532 40.9583 13.4584 41.1635 13.4584 41.4166V41.4166C13.4584 41.6698 13.2532 41.875 13 41.875V41.875C12.7469 41.875 12.5417 41.6698 12.5417 41.4166V41.4166C12.5417 41.1635 12.7469 40.9583 13 40.9583" stroke="currentColor" stroke-width="1.75" stroke-linecap="round" stroke-linejoin="round"></path>      <path fill-rule="evenodd" clip-rule="evenodd" d="M1.08334 5.91666C1.08334 4.25981 2.42649 2.91666 4.08334 2.91666H21.9167C23.5735 2.91666 24.9167 4.2598 24.9167 5.91666V42.0833C24.9167 43.7402 23.5735 45.0833 21.9167 45.0833H4.08335C2.42649 45.0833 1.08334 43.7402 1.08334 42.0833V5.91666Z" stroke="currentColor" stroke-width="1.75" stroke-linecap="round" stroke-linejoin="round"></path>      <path d="M24.9167 37.75H1.08334" stroke="currentColor" stroke-width="1.75" stroke-linecap="round" stroke-linejoin="round"></path>      <path d="M24.9167 10.25H1.08334" stroke="currentColor" stroke-width="1.75" stroke-linecap="round" stroke-linejoin="round"></path>      <path d="M10.25 6.58331H15.75" stroke="currentColor" stroke-width="1.75" stroke-linecap="round" stroke-linejoin="round"></path>    </svg>