<svg class="icon-label-tag " aria-hidden="true" focusable="false" role="presentation" xmlns="http://www.w3.org/2000/svg" width="44" height="44" viewBox="0 0 44 44" fill="none">          <title>Label tag icon</title>        <path d="M30.9112 17.1934C32.9586 17.1934 34.6185 15.5336 34.6185 13.4861C34.6185 11.4386 32.9586 9.77881 30.9112 9.77881C28.8637 9.77881 27.2039 11.4386 27.2039 13.4861C27.2039 15.5336 28.8637 17.1934 30.9112 17.1934Z" stroke="currentColor" stroke-width="1.75" stroke-linecap="round" stroke-linejoin="round"></path>      <path fill-rule="evenodd" clip-rule="evenodd" d="M13.5865 41.5053L2.88978 30.8034C1.41322 29.3256 1.41322 26.9302 2.88978 25.4524L22.7448 5.59149C23.4528 4.88229 24.4134 4.48344 25.4153 4.48264L36.1266 4.48264C38.2121 4.47961 39.9066 6.16592 39.9146 8.25238L39.9146 18.9634C39.9148 19.968 39.5153 20.9313 38.8045 21.6407L18.9349 41.5071C18.2256 42.2167 17.2635 42.6152 16.2603 42.6149C15.2572 42.6145 14.2954 42.2154 13.5865 41.5053Z" stroke="currentColor" stroke-width="1.75" stroke-linecap="round" stroke-linejoin="round"></path>      <path d="M9.19696 29.6798L19.0908 19.7859" stroke="currentColor" stroke-width="1.75"></path>      <path d="M12.4949 32.9777L19.0909 26.3818" stroke="currentColor" stroke-width="1.75"></path>      <path d="M31.2736 11.7752C30.9319 12.1169 30.9319 12.6709 31.2736 13.0126C31.6153 13.3543 32.1693 13.3543 32.511 13.0126L31.2736 11.7752ZM43.1259 2.39774C43.4676 2.05603 43.4676 1.50201 43.1259 1.1603C42.7842 0.818595 42.2301 0.818595 41.8884 1.1603L43.1259 2.39774ZM32.511 13.0126L43.1259 2.39774L41.8884 1.1603L31.2736 11.7752L32.511 13.0126Z" fill="currentColor"></path>    </svg>